<svg version="1.1" id="Layer_1" xmlns="http://www.w3.org/2000/svg" xmlns:xlink="http://www.w3.org/1999/xlink" x="0px" y="0px"
	 viewBox="0 0 680.3 481.9" style="enable-background:new 0 0 680.3 481.9;" xml:space="preserve">
<style type="text/css">
	.st0{fill:#A6CD93;stroke:#5B893D;stroke-width:2;stroke-miterlimit:8;}
	.st1{fill:#010101;}
	.st2{font-family:'Calibri';}
	.st3{font-size:32.0149px;}
	.st4{fill:none;stroke:#5A893D;stroke-width:2;stroke-miterlimit:8;}
	.st5{fill:none;stroke:#71AD46;stroke-width:2;stroke-miterlimit:8;}
	.st6{font-size:22.2344px;}
	.st7{letter-spacing:1;}
	.st8{letter-spacing:-1;}
	.st9{font-size:19.7639px;}
</style>
<path class="st0" d="M3.9,11.7c0-4.4,4-7.9,8.9-7.9h159.6c4.9,0,8.9,3.5,8.9,7.9v63.2c0,4.4-4,7.9-8.9,7.9H12.9
	c-4.9,0-8.9-3.5-8.9-7.9V11.7z"/>
<text transform="matrix(0.9995 0 0 1 37.4255 53.1129)"><tspan x="0" y="0" class="st1 st2 st3">B</tspan><tspan x="17.1" y="0" class="st1 st2 st3">a</tspan><tspan x="32.7" y="0" class="st1 st2 st3">c</tspan><tspan x="46.2" y="0" class="st1 st2 st3">k</tspan><tspan x="60.3" y="0" class="st1 st2 st3">u</tspan><tspan x="77.4" y="0" class="st1 st2 st3">p</tspan></text>
<polyline class="st4" points="19.1,83.1 19.1,142.2 38.1,142.2 "/>
<path class="st5" d="M38,110.8c0-4.4,3.5-7.9,7.9-7.9h283.8c4.4,0,7.9,3.5,7.9,7.9V174c0,4.4-3.5,7.9-7.9,7.9H45.9
	c-4.4,0-7.9-3.5-7.9-7.9V110.8z"/>
<path class="st5" d="M377.6,406.3c0-4.4,3.5-7.9,7.9-7.9h283.8c4.4,0,7.9,3.5,7.9,7.9v63.2c0,4.4-3.5,7.9-7.9,7.9H385.5
	c-4.4,0-7.9-3.5-7.9-7.9V406.3z"/>
<path class="st0" d="M339.7,11.7c0-4.4,4-7.9,8.9-7.9h159.6c4.9,0,8.9,3.5,8.9,7.9v63.2c0,4.4-4,7.9-8.9,7.9H348.6
	c-4.9,0-8.9-3.5-8.9-7.9V11.7z"/>
<polyline class="st4" points="19.1,83.1 19.1,240.8 38.1,240.8 "/>
<path class="st5" d="M38,209.6c0-4.4,3.5-7.9,7.9-7.9h283.8c4.4,0,7.9,3.5,7.9,7.9v63.2c0,4.4-3.5,7.9-7.9,7.9H45.9
	c-4.4,0-7.9-3.5-7.9-7.9V209.6z"/>
<text transform="matrix(0.9995 0 0 1 54.8923 246.714)"><tspan x="0" y="0" class="st1 st2 st6">N</tspan><tspan x="14" y="0" class="st1 st2 st6">o</tspan><tspan x="25.6" y="0" class="st1 st2 st6">t</tspan><tspan x="33" y="0" class="st1 st2 st6"> </tspan><tspan x="38" y="0" class="st1 st2 st6">p</tspan><tspan x="49.5" y="0" class="st1 st2 st6">e</tspan><tspan x="60.2" y="0" class="st1 st2 st6">r</tspan><tspan x="67.6" y="0" class="st1 st2 st6">m</tspan><tspan x="85.7" y="0" class="st1 st2 st6">a</tspan><tspan x="96.4" y="0" class="st1 st2 st6">n</tspan><tspan x="108" y="0" class="st1 st2 st6">e</tspan><tspan x="118.7" y="0" class="st1 st2 st6">n</tspan><tspan x="130.2" y="0" class="st1 st2 st6">t</tspan></text>
<polyline class="st4" points="19.1,83.1 19.1,339.3 38.1,339.3 "/>
<path class="st5" d="M38,308.3c0-4.3,3.5-7.8,7.8-7.8h284c4.3,0,7.8,3.5,7.8,7.8v62.6c0,4.3-3.5,7.8-7.8,7.8h-284
	c-4.3,0-7.8-3.5-7.8-7.8V308.3z"/>
<text transform="matrix(0.9995 0 0 1 54.8923 345.256)"><tspan x="0" y="0" class="st1 st2 st6">“</tspan><tspan x="9.1" y="0" class="st1 st2 st6">W</tspan><tspan x="28" y="0" class="st1 st2 st6">o</tspan><tspan x="39.6" y="0" class="st1 st2 st6">r</tspan><tspan x="47" y="0" class="st1 st2 st6">k</tspan><tspan x="56.9" y="0" class="st1 st2 st6">i</tspan><tspan x="61.8" y="0" class="st1 st2 st6">n</tspan><tspan x="73.4" y="0" class="st1 st2 st6 st7">g</tspan><tspan x="84.9" y="0" class="st1 st2 st6">”</tspan><tspan x="93.9" y="0" class="st1 st2 st6"> </tspan><tspan x="98.9" y="0" class="st1 st2 st6 st8">f</tspan><tspan x="104.7" y="0" class="st1 st2 st6">o</tspan><tspan x="116.2" y="0" class="st1 st2 st6">r</tspan><tspan x="123.6" y="0" class="st1 st2 st6">m</tspan><tspan x="141.7" y="0" class="st1 st2 st6">a</tspan><tspan x="152.4" y="0" class="st1 st2 st6">t</tspan><tspan x="159.9" y="0" class="st1 st2 st6">s</tspan></text>
<polyline class="st4" points="19.1,83.1 19.1,437.9 38.1,437.9 "/>
<path class="st5" d="M38,406.4c0-4.4,3.5-7.9,7.9-7.9h283.8c4.4,0,7.9,3.5,7.9,7.9v63.2c0,4.4-3.5,7.9-7.9,7.9H45.9
	c-4.4,0-7.9-3.5-7.9-7.9V406.4z"/>
<text transform="matrix(0.9995 0 0 1 54.8923 422.0734)"><tspan x="0" y="0" class="st1 st2 st6">U</tspan><tspan x="14" y="0" class="st1 st2 st6">s</tspan><tspan x="23.1" y="0" class="st1 st2 st6">u</tspan><tspan x="34.6" y="0" class="st1 st2 st6">a</tspan><tspan x="45.3" y="0" class="st1 st2 st6">ll</tspan><tspan x="55.2" y="0" class="st1 st2 st6">y</tspan><tspan x="65.1" y="0" class="st1 st2 st6"> </tspan><tspan x="70.1" y="0" class="st1 st2 st6">s</tspan><tspan x="79.1" y="0" class="st1 st2 st6">t</tspan><tspan x="86.5" y="0" class="st1 st2 st6">o</tspan><tspan x="98.1" y="0" class="st1 st2 st6">r</tspan><tspan x="105.5" y="0" class="st1 st2 st6">e</tspan><tspan x="116.2" y="0" class="st1 st2 st6">d</tspan><tspan x="127.8" y="0" class="st1 st2 st6"> </tspan><tspan x="131.9" y="0" class="st1 st2 st6">l</tspan><tspan x="136.8" y="0" class="st1 st2 st6">o</tspan><tspan x="148.4" y="0" class="st1 st2 st6">c</tspan><tspan x="157.5" y="0" class="st1 st2 st6">a</tspan><tspan x="168.1" y="0" class="st1 st2 st6">ll</tspan><tspan x="178" y="0" class="st1 st2 st6">y</tspan><tspan x="187.9" y="0" class="st1 st2 st6"> </tspan></text>
<text transform="matrix(0.9995 0 0 1 54.8923 444.3087)"><tspan x="0" y="0" class="st1 st2 st9">(</tspan><tspan x="5.8" y="0" class="st1 st2 st9">i</tspan><tspan x="10.7" y="0" class="st1 st2 st9">nd</tspan><tspan x="32.1" y="0" class="st1 st2 st9">i</tspan><tspan x="37" y="0" class="st1 st2 st9">v</tspan><tspan x="46.1" y="0" class="st1 st2 st9">i</tspan><tspan x="51" y="0" class="st1 st2 st9">du</tspan><tspan x="72.4" y="0" class="st1 st2 st9">a</tspan><tspan x="82.3" y="0" class="st1 st2 st9">l</tspan><tspan x="86.4" y="0" class="st1 st2 st9">,</tspan><tspan x="91.3" y="0" class="st1 st2 st9 st8"> </tspan><tspan x="93.8" y="0" class="st1 st2 st9">d</tspan><tspan x="104.5" y="0" class="st1 st2 st9">e</tspan><tspan x="114.4" y="0" class="st1 st2 st9">p</tspan><tspan x="125.1" y="0" class="st1 st2 st9">a</tspan><tspan x="134.9" y="0" class="st1 st2 st9">r</tspan><tspan x="141.5" y="0" class="st1 st2 st9">t</tspan><tspan x="148.1" y="0" class="st1 st2 st9">m</tspan><tspan x="163.8" y="0" class="st1 st2 st9">e</tspan><tspan x="173.7" y="0" class="st1 st2 st9">n</tspan><tspan x="184.4" y="0" class="st1 st2 st9">t</tspan><tspan x="191" y="0" class="st1 st2 st9">,</tspan><tspan x="195.9" y="0" class="st1 st2 st9 st8"> </tspan><tspan x="198.4" y="0" class="st1 st2 st9">c</tspan><tspan x="206.6" y="0" class="st1 st2 st9">o</tspan><tspan x="217.3" y="0" class="st1 st2 st9">ll</tspan><tspan x="227.2" y="0" class="st1 st2 st9">e</tspan><tspan x="237" y="0" class="st1 st2 st9">g</tspan><tspan x="246.1" y="0" class="st1 st2 st9">e</tspan><tspan x="256" y="0" class="st1 st2 st9">, </tspan></text>
<text transform="matrix(0.9995 0 0 1 54.8923 466.5578)"><tspan x="0" y="0" class="st1 st2 st9">IS</tspan><tspan x="14" y="0" class="st1 st2 st9">/</tspan><tspan x="21.4" y="0" class="st1 st2 st9">C</tspan><tspan x="32.1" y="0" class="st1 st2 st9">N</tspan><tspan x="45.3" y="0" class="st1 st2 st9">)</tspan></text>
<text transform="matrix(0.9995 0 0 1 374.4666 53.1129)"><tspan x="0" y="0" class="st1 st2 st3">A</tspan><tspan x="18.6" y="0" class="st1 st2 st3">r</tspan><tspan x="29" y="0" class="st1 st2 st3">c</tspan><tspan x="42.4" y="0" class="st1 st2 st3">h</tspan><tspan x="59.5" y="0" class="st1 st2 st3">i</tspan><tspan x="67" y="0" class="st1 st2 st3">v</tspan><tspan x="81.1" y="0" class="st1 st2 st3">e</tspan></text>
<polyline class="st4" points="358.2,83.1 358.2,142.2 377.2,142.2 "/>
<path class="st5" d="M377.1,110.8c0-4.4,3.5-7.9,7.9-7.9h283c4.4,0,7.9,3.5,7.9,7.9V174c0,4.4-3.5,7.9-7.9,7.9H385
	c-4.4,0-7.9-3.5-7.9-7.9V110.8z"/>
<text transform="matrix(0.9995 0 0 1 393.5916 148.1569)"><tspan x="0" y="0" class="st1 st2 st6">F</tspan><tspan x="9.9" y="0" class="st1 st2 st6">i</tspan><tspan x="14.8" y="0" class="st1 st2 st6">n</tspan><tspan x="26.4" y="0" class="st1 st2 st6">a</tspan><tspan x="37.1" y="0" class="st1 st2 st6">li</tspan><tspan x="47" y="0" class="st1 st2 st6">z</tspan><tspan x="55.2" y="0" class="st1 st2 st6">e</tspan><tspan x="65.9" y="0" class="st1 st2 st6">d</tspan><tspan x="77.5" y="0" class="st1 st2 st6"> </tspan><tspan x="83.2" y="0" class="st1 st2 st6">d</tspan><tspan x="94.8" y="0" class="st1 st2 st6">a</tspan><tspan x="105.5" y="0" class="st1 st2 st6">t</tspan><tspan x="112.9" y="0" class="st1 st2 st6">a</tspan><tspan x="123.6" y="0" class="st1 st2 st6">;</tspan><tspan x="129.4" y="0" class="st1 st2 st6"> </tspan><tspan x="133.5" y="0" class="st1 st2 st6">s</tspan><tspan x="142.6" y="0" class="st1 st2 st6">t</tspan><tspan x="150" y="0" class="st1 st2 st6">a</tspan><tspan x="160.7" y="0" class="st1 st2 st6">ti</tspan><tspan x="172.9" y="0" class="st1 st2 st6">c</tspan><tspan x="182" y="0" class="st1 st2 st6 st8"> </tspan><tspan x="185.3" y="0" class="st1 st2 st6">r</tspan><tspan x="192.7" y="0" class="st1 st2 st6">e</tspan><tspan x="203.4" y="0" class="st1 st2 st6">c</tspan><tspan x="212.5" y="0" class="st1 st2 st6">o</tspan><tspan x="224" y="0" class="st1 st2 st6">r</tspan><tspan x="231.4" y="0" class="st1 st2 st6">d</tspan></text>
<polyline class="st4" points="358.2,83.1 358.2,240.8 377.2,240.8 "/>
<path class="st5" d="M377.1,209.6c0-4.4,3.5-7.9,7.9-7.9h283c4.4,0,7.9,3.5,7.9,7.9v63.2c0,4.4-3.5,7.9-7.9,7.9H385
	c-4.4,0-7.9-3.5-7.9-7.9V209.6z"/>
<text transform="matrix(0.9995 0 0 1 393.5916 246.714)"><tspan x="0" y="0" class="st1 st2 st6">K</tspan><tspan x="11.5" y="0" class="st1 st2 st6">e</tspan><tspan x="22.2" y="0" class="st1 st2 st6">p</tspan><tspan x="33.8" y="0" class="st1 st2 st6">t</tspan><tspan x="41.2" y="0" class="st1 st2 st6"> </tspan><tspan x="45.3" y="0" class="st1 st2 st6">l</tspan><tspan x="50.3" y="0" class="st1 st2 st6">o</tspan><tspan x="61.8" y="0" class="st1 st2 st6">n</tspan><tspan x="73.4" y="0" class="st1 st2 st6">g</tspan></text>
<text transform="matrix(0.9995 0 0 1 477.5486 246.714)" class="st1 st2 st6">-</text>
<text transform="matrix(0.9995 0 0 1 484.1335 246.714)"><tspan x="0" y="0" class="st1 st2 st6">t</tspan><tspan x="7.4" y="0" class="st1 st2 st6">e</tspan><tspan x="18.1" y="0" class="st1 st2 st6">r</tspan><tspan x="25.6" y="0" class="st1 st2 st6">m</tspan><tspan x="43.6" y="0" class="st1 st2 st6"> </tspan><tspan x="48.6" y="0" class="st1 st2 st6">(</tspan><tspan x="55.2" y="0" class="st1 st2 st6">5</tspan><tspan x="66.7" y="0" class="st1 st2 st6">+</tspan><tspan x="77.4" y="0" class="st1 st2 st6"> </tspan><tspan x="82.4" y="0" class="st1 st2 st6">y</tspan><tspan x="92.3" y="0" class="st1 st2 st6">e</tspan><tspan x="103" y="0" class="st1 st2 st6">a</tspan><tspan x="113.7" y="0" class="st1 st2 st6">r</tspan><tspan x="121.1" y="0" class="st1 st2 st6">s</tspan><tspan x="130.2" y="0" class="st1 st2 st6">)</tspan></text>
<polyline class="st4" points="358.2,83.1 358.2,339.3 377.2,339.3 "/>
<path class="st5" d="M377.1,308.3c0-4.3,3.5-7.8,7.8-7.8h283.1c4.3,0,7.8,3.5,7.8,7.8l0,62.6c0,4.3-3.5,7.8-7.8,7.8l-283.1,0
	c-4.3,0-7.8-3.5-7.8-7.8V308.3z"/>
<text transform="matrix(0.9995 0 0 1 393.5916 345.256)"><tspan x="0" y="0" class="st1 st2 st6">P</tspan><tspan x="11.5" y="0" class="st1 st2 st6">r</tspan><tspan x="18.9" y="0" class="st1 st2 st6">e</tspan><tspan x="29.6" y="0" class="st1 st2 st6">s</tspan><tspan x="38.7" y="0" class="st1 st2 st6">e</tspan><tspan x="49.4" y="0" class="st1 st2 st6">r</tspan><tspan x="56.8" y="0" class="st1 st2 st6">v</tspan><tspan x="66.7" y="0" class="st1 st2 st6">a</tspan><tspan x="77.4" y="0" class="st1 st2 st6">ti</tspan><tspan x="89.6" y="0" class="st1 st2 st6">o</tspan><tspan x="101.2" y="0" class="st1 st2 st6">n</tspan><tspan x="112.7" y="0" class="st1 st2 st6"> </tspan><tspan x="117.7" y="0" class="st1 st2 st6 st8">f</tspan><tspan x="123.5" y="0" class="st1 st2 st6">o</tspan><tspan x="135" y="0" class="st1 st2 st6">r</tspan><tspan x="142.4" y="0" class="st1 st2 st6">m</tspan><tspan x="160.5" y="0" class="st1 st2 st6">a</tspan><tspan x="171.2" y="0" class="st1 st2 st6">t</tspan><tspan x="178.6" y="0" class="st1 st2 st6">s</tspan></text>
<text transform="matrix(0.9995 0 0 1 393.5916 445.966)" class="st1 st2 st6">Often stored in official archive</text>
<polyline class="st4" points="358.2,83.1 358.2,437.9 377.2,437.9 "/>
<text transform="matrix(0.9995 0 0 1 54.8923 148.1569)"><tspan x="0" y="0" class="st1 st2 st6">D</tspan><tspan x="14" y="0" class="st1 st2 st6">a</tspan><tspan x="24.7" y="0" class="st1 st2 st6">t</tspan><tspan x="32.1" y="0" class="st1 st2 st6">a</tspan><tspan x="42.8" y="0" class="st1 st2 st6 st8"> </tspan><tspan x="46.1" y="0" class="st1 st2 st6">m</tspan><tspan x="64.2" y="0" class="st1 st2 st6">a</tspan><tspan x="74.9" y="0" class="st1 st2 st6">y</tspan><tspan x="84.8" y="0" class="st1 st2 st6"> </tspan><tspan x="88.9" y="0" class="st1 st2 st6">c</tspan><tspan x="98" y="0" class="st1 st2 st6">h</tspan><tspan x="109.6" y="0" class="st1 st2 st6">a</tspan><tspan x="120.2" y="0" class="st1 st2 st6">n</tspan><tspan x="131.8" y="0" class="st1 st2 st6">g</tspan><tspan x="142.5" y="0" class="st1 st2 st6">e</tspan></text>
</svg>
