<svg id="Layer_1" data-name="Layer 1" xmlns="http://www.w3.org/2000/svg" viewBox="0 0 520.62 204.31"><defs><style>.cls-1{fill:#93ceb2;}.cls-2{fill:none;stroke:#6a9a87;stroke-linejoin:round;stroke-width:0.75px;}.cls-21,.cls-3{font-size:15.5px;}.cls-3{fill:#413252;font-family:BitstreamVeraSans-Roman, Bitstream Vera Sans;}.cls-4{letter-spacing:0em;}.cls-5{letter-spacing:0em;}.cls-6{letter-spacing:-0.05em;}.cls-7{letter-spacing:-0.02em;}.cls-8{letter-spacing:0em;}.cls-9{letter-spacing:0em;}.cls-10{letter-spacing:0em;}.cls-11{letter-spacing:0em;}.cls-12{letter-spacing:0em;}.cls-13,.cls-21{letter-spacing:0em;}.cls-14{letter-spacing:-0.02em;}.cls-15{letter-spacing:0em;}.cls-16{letter-spacing:-0.17em;}.cls-17{letter-spacing:0em;}.cls-18{letter-spacing:0em;}.cls-19{letter-spacing:0em;}.cls-20{letter-spacing:0em;}.cls-21{fill:#010101;font-family:Calibri, Calibri;}</style></defs><title>initiative</title><ellipse class="cls-1" cx="386.08" cy="179.14" rx="108.11" ry="24.8"/><ellipse class="cls-2" cx="386.08" cy="179.14" rx="108.11" ry="24.8"/><ellipse class="cls-1" cx="412.14" cy="17.76" rx="108.11" ry="17.38"/><ellipse class="cls-2" cx="412.14" cy="17.76" rx="108.11" ry="17.38"/><ellipse class="cls-1" cx="91.82" cy="19.7" rx="91.45" ry="15.89"/><ellipse class="cls-2" cx="91.82" cy="19.7" rx="91.45" ry="15.89"/><ellipse class="cls-1" cx="85.38" cy="171.4" rx="54.25" ry="15.89"/><ellipse class="cls-2" cx="85.38" cy="171.4" rx="54.25" ry="15.89"/><text class="cls-3" transform="translate(20.66 25.9)">O<tspan class="cls-4" x="12.2" y="0">ffi</tspan><tspan x="27.33" y="0">c</tspan><tspan class="cls-5" x="35.85" y="0">e</tspan><tspan x="45.35" y="0" xml:space="preserve"> o</tspan><tspan class="cls-5" x="59.76" y="0">f</tspan><tspan x="65.19" y="0"> </tspan><tspan class="cls-6" x="70.11" y="0">R</tspan><tspan class="cls-5" x="80.17" y="0">ese</tspan><tspan x="107.22" y="0">a</tspan><tspan class="cls-7" x="116.72" y="0">r</tspan><tspan class="cls-8" x="122.78" y="0">ch</tspan></text><text class="cls-3" transform="translate(52.56 176.6)">L<tspan class="cls-4" x="8.64" y="0">i</tspan><tspan class="cls-9" x="12.91" y="0">b</tspan><tspan class="cls-10" x="22.78" y="0">r</tspan><tspan class="cls-11" x="29.17" y="0">a</tspan><tspan class="cls-10" x="38.67" y="0">r</tspan><tspan class="cls-5" x="45.05" y="0">i</tspan><tspan class="cls-12" x="49.33" y="0">e</tspan><tspan class="cls-11" x="58.82" y="0">s</tspan></text><text class="cls-3" transform="translate(321.62 22.69)"><tspan class="cls-13">I</tspan><tspan class="cls-4" x="4.56" y="0">nf</tspan><tspan class="cls-11" x="19.77" y="0">o</tspan><tspan class="cls-14" x="29.26" y="0">r</tspan><tspan x="35.38" y="0">ma</tspan><tspan class="cls-10" x="59.98" y="0">t</tspan><tspan class="cls-4" x="66.07" y="0">i</tspan><tspan x="70.34" y="0">o</tspan><tspan class="cls-15" x="79.83" y="0">n</tspan><tspan x="89.62" y="0"> </tspan><tspan class="cls-16" x="94.55" y="0">T</tspan><tspan class="cls-4" x="101.41" y="0">e</tspan><tspan x="110.91" y="0">c</tspan><tspan class="cls-4" x="119.44" y="0">hn</tspan><tspan x="139.02" y="0">o</tspan><tspan class="cls-4" x="148.5" y="0">l</tspan><tspan x="152.78" y="0">o</tspan><tspan class="cls-17" x="162.26" y="0">g</tspan><tspan x="172.13" y="0">y</tspan></text><text class="cls-3" transform="translate(346.27 172.55)"><tspan class="cls-10">C</tspan><tspan class="cls-18" x="10.84" y="0">e</tspan><tspan class="cls-4" x="20.33" y="0">n</tspan><tspan class="cls-10" x="30.12" y="0">t</tspan><tspan class="cls-18" x="36.21" y="0">e</tspan><tspan x="45.7" y="0">r</tspan><tspan class="cls-10" x="52.07" y="0"> </tspan><tspan class="cls-4" x="57.02" y="0">f</tspan><tspan class="cls-19" x="62.44" y="0">or </tspan></text><text class="cls-3" transform="translate(298.42 190.15)"><tspan class="cls-10">C</tspan><tspan class="cls-11" x="10.84" y="0">om</tspan><tspan class="cls-9" x="35.42" y="0">p</tspan><tspan class="cls-15" x="45.29" y="0">u</tspan><tspan class="cls-20" x="55.08" y="0">t</tspan><tspan x="61.17" y="0">a</tspan><tspan class="cls-10" x="70.67" y="0">t</tspan><tspan class="cls-4" x="76.76" y="0">i</tspan><tspan x="81.04" y="0">o</tspan><tspan class="cls-4" x="90.52" y="0">n</tspan><tspan x="100.31" y="0">a</tspan><tspan class="cls-4" x="109.81" y="0">l</tspan><tspan x="114.09" y="0"> </tspan><tspan class="cls-17" x="119.01" y="0">S</tspan><tspan x="128.88" y="0">c</tspan><tspan class="cls-4" x="137.4" y="0">ien</tspan><tspan x="160.98" y="0">ce</tspan></text><text class="cls-21" transform="translate(118.68 81.78)">Conversation/collaboration initiated in 2009<tspan x="27.08" y="18.6">CLIR postdoctoral fellow 2014-2016</tspan><tspan x="42.32" y="37.2">Emerging e-science on campus</tspan></text></svg>